<?xml version="1.0" encoding="UTF-8" standalone="no"?>
<!-- Created with Inkscape (http://www.inkscape.org/) -->

<svg
   xmlns:dc="http://purl.org/dc/elements/1.1/"
   xmlns:cc="http://creativecommons.org/ns#"
   xmlns:rdf="http://www.w3.org/1999/02/22-rdf-syntax-ns#"
   xmlns:svg="http://www.w3.org/2000/svg"
   xmlns="http://www.w3.org/2000/svg"
   xmlns:sodipodi="http://sodipodi.sourceforge.net/DTD/sodipodi-0.dtd"
   xmlns:inkscape="http://www.inkscape.org/namespaces/inkscape"
   width="210mm"
   height="297mm"
   viewBox="0 0 744.09448819 1052.3622047"
   id="svg2"
   version="1.1"
   inkscape:version="0.91 r13725"
   sodipodi:docname="camera.svg"
   inkscape:export-filename="C:\Users\Tushita\Desktop\website\images\camera.png"
   inkscape:export-xdpi="90"
   inkscape:export-ydpi="90">
  <defs
     id="defs4">
    <inkscape:perspective
       sodipodi:type="inkscape:persp3d"
       inkscape:vp_x="0 : 526.1811 : 1"
       inkscape:vp_y="0 : 1000 : 0"
       inkscape:vp_z="744.09449 : 526.1811 : 1"
       inkscape:persp3d-origin="372.04724 : 350.7874 : 1"
       id="perspective4298" />
  </defs>
  <sodipodi:namedview
     id="base"
     pagecolor="#ffffff"
     bordercolor="#666666"
     borderopacity="1.0"
     inkscape:pageopacity="0.0"
     inkscape:pageshadow="2"
     inkscape:zoom="1.01"
     inkscape:cx="261.29672"
     inkscape:cy="670.73646"
     inkscape:document-units="px"
     inkscape:current-layer="layer1"
     showgrid="false"
     inkscape:window-width="1366"
     inkscape:window-height="705"
     inkscape:window-x="-8"
     inkscape:window-y="-8"
     inkscape:window-maximized="1" />
  <metadata
     id="metadata7">
    <rdf:RDF>
      <cc:Work
         rdf:about="">
        <dc:format>image/svg+xml</dc:format>
        <dc:type
           rdf:resource="http://purl.org/dc/dcmitype/StillImage" />
        <dc:title />
      </cc:Work>
    </rdf:RDF>
  </metadata>
  <g
     inkscape:label="Layer 1"
     inkscape:groupmode="layer"
     id="layer1">
    <rect
       style="opacity:0.5;fill:#e6e6e6;fill-rule:evenodd;stroke:#1a1a1a;stroke-width:1.45752537;stroke-linecap:round;stroke-linejoin:round;stroke-miterlimit:4;stroke-dasharray:none;stroke-opacity:1"
       id="rect3340"
       width="242.88222"
       height="140.65273"
       x="161.8791"
       y="289.8848"
       ry="16.991346"
       inkscape:export-xdpi="90"
       inkscape:export-ydpi="90" />
    <ellipse
       style="opacity:1;fill:#c8b7b7;fill-rule:evenodd;stroke:#1a1a1a;stroke-width:1.45752537;stroke-linecap:round;stroke-linejoin:round;stroke-miterlimit:4;stroke-dasharray:none;stroke-opacity:1"
       id="path3348"
       cx="325.96365"
       cy="366.60446"
       rx="39.86235"
       ry="38.968723"
       inkscape:export-xdpi="90"
       inkscape:export-ydpi="90" />
    <ellipse
       style="opacity:1;fill:#e6e6e6;fill-rule:evenodd;stroke:#1a1a1a;stroke-width:1.45752537;stroke-linecap:round;stroke-linejoin:round;stroke-miterlimit:4;stroke-dasharray:none;stroke-opacity:1"
       id="path3352"
       cx="325.96365"
       cy="366.60446"
       rx="27.501928"
       ry="26.182112"
       inkscape:export-xdpi="90"
       inkscape:export-ydpi="90" />
    <path
       style="opacity:1;fill:#483737;fill-rule:evenodd;stroke:none;stroke-width:2.70000005;stroke-linecap:round;stroke-linejoin:round;stroke-miterlimit:4;stroke-dasharray:none;stroke-opacity:1"
       d="m 317.84807,390.49095 c -7.20072,-2.45315 -13.25956,-7.6722 -16.24477,-13.99316 -1.45212,-3.07475 -1.64475,-4.2314 -1.64475,-9.87593 0,-5.63374 0.19406,-6.80407 1.63341,-9.85068 4.34299,-9.19262 13.82919,-15.11366 24.21385,-15.11366 10.90951,0 19.82806,5.5061 24.36261,15.04089 1.49304,3.13942 1.67887,4.23918 1.67887,9.93625 0,5.9757 -0.13267,6.67117 -1.97457,10.35107 -4.66108,9.31227 -13.44818,14.62469 -24.11733,14.58058 -2.90889,-0.012 -6.03335,-0.43693 -7.90732,-1.07536 z"
       id="path3360"
       inkscape:connector-curvature="0"
       inkscape:export-xdpi="90"
       inkscape:export-ydpi="90" />
    <path
       style="opacity:0.98999999;fill:#241c1c;fill-rule:evenodd;stroke:none;stroke-width:2.70000005;stroke-linecap:round;stroke-linejoin:round;stroke-miterlimit:4;stroke-dasharray:none;stroke-opacity:1"
       d="m 174.94041,429.12726 c -4.59537,-1.21929 -8.27113,-4.23479 -10.4551,-8.57709 l -1.40652,-2.79653 0,-57.5338 0,-57.53381 1.18974,-2.45067 c 2.16299,-4.4554 6.03968,-7.71507 10.55721,-8.87691 2.04054,-0.5248 9.0912,-0.56259 108.24803,-0.5802 94.9141,-0.0169 106.3043,0.0347 108.33853,0.49055 6.46014,1.44762 11.48502,7.11138 12.30357,13.86791 0.21856,1.80405 0.3033,21.78685 0.2418,57.01903 l -0.0947,54.2416 -0.77203,2.12392 c -1.96288,5.40001 -6.13003,9.22801 -11.56345,10.62232 -2.78653,0.71507 -213.89053,0.69917 -216.58711,-0.0163 l 0,-1e-5 z m 157.11986,-23.16801 c 8.77193,-1.30282 16.35914,-5.1076 22.75931,-11.41316 5.34508,-5.26609 8.66098,-10.92468 10.61478,-18.11418 1.14097,-4.19849 1.45999,-12.09416 0.66944,-16.56854 -2.01329,-11.3949 -9.13701,-21.54127 -19.26661,-27.44153 -6.39317,-3.72388 -12.85797,-5.47131 -20.41649,-5.51854 -5.38034,-0.0336 -8.26112,0.37512 -12.93469,1.83527 -6.33321,1.97866 -11.81033,5.29261 -16.59689,10.04197 -7.51131,7.45296 -11.59144,17.23363 -11.59144,27.78642 0,24.42406 22.11448,43.05307 46.76259,39.39229 z"
       id="path4294"
       inkscape:connector-curvature="0"
       inkscape:export-xdpi="90"
       inkscape:export-ydpi="90" />
    <path
       style="opacity:0.98999999;fill:#6c5353;fill-rule:evenodd;stroke:none;stroke-width:2.70000005;stroke-linecap:round;stroke-linejoin:round;stroke-miterlimit:4;stroke-dasharray:none;stroke-opacity:1"
       d="m 203.84762,428.58461 c -26.26438,-0.1983 -28.98699,-0.26872 -30.3326,-0.78448 -3.68636,-1.41294 -6.5095,-3.94787 -8.78921,-7.89192 l -1.50638,-2.60614 0,-57.79605 0,-57.79606 1.22842,-2.33508 c 1.55108,-2.94843 4.84267,-6.23142 7.53885,-7.51916 1.10976,-0.53005 2.97867,-1.07225 4.30756,-1.24971 3.75304,-0.50117 212.09595,-0.50327 214.60888,-0.002 1.09447,0.21825 2.81081,0.78912 3.81408,1.26862 2.37039,1.13288 5.92489,4.63759 7.06346,6.96451 2.011,4.10992 1.90501,0.49354 1.81122,61.80049 l -0.0857,56.04466 -1.40437,2.79219 c -2.57901,5.12763 -6.95758,8.29887 -12.13631,8.7899 -3.62722,0.34392 -149.69725,0.59538 -186.11787,0.32041 z m 131.86256,-23.97103 c 5.47297,-1.41647 11.73406,-4.27754 13.78693,-6.30006 0.4057,-0.3997 0.80035,-0.66495 0.877,-0.58944 0.29519,0.29083 6.70231,-6.04913 8.54012,-8.45061 1.97076,-2.57519 5.409,-8.88689 5.1914,-9.53004 -0.066,-0.19532 0.09,-0.56216 0.34683,-0.8152 0.25684,-0.25304 0.39474,-0.73223 0.30645,-1.06487 -0.0883,-0.33264 -0.0372,-0.6048 0.11349,-0.6048 0.15071,0 0.52839,-1.06604 0.83927,-2.36899 0.60522,-2.53654 1.08871,-14.62012 0.58517,-14.62492 -0.14746,-7.2e-4 -0.29408,-0.72137 -0.32583,-1.59992 -0.0676,-1.8721 -1.9395,-7.58885 -3.4503,-10.53749 -3.86232,-7.53812 -10.1662,-13.8134 -17.75596,-17.67544 -3.31923,-1.68896 -7.92235,-3.31948 -8.62322,-3.05451 -0.25276,0.0956 -0.45957,0.0446 -0.45957,-0.11323 0,-0.15784 -1.0074,-0.44759 -2.23869,-0.64389 -3.01158,-0.48012 -2.86227,-0.47255 -8.70605,-0.44162 -4.35363,0.0231 -5.62311,0.15173 -8.29146,0.84048 -3.91101,1.00952 -6.96483,2.13015 -6.96483,2.55582 0,0.17741 -0.15344,0.22914 -0.34097,0.11495 -0.18752,-0.11418 -1.34418,0.33379 -2.57035,0.99549 -10.19507,5.50178 -17.56189,14.8237 -20.34232,25.741 -0.88656,3.48109 -1.15808,12.41126 -0.49143,16.16283 0.58953,3.31749 1.79604,7.26349 2.22087,7.26349 0.18545,0 0.24917,0.14031 0.1416,0.31179 -0.29863,0.47604 1.55884,4.26596 3.6109,7.36757 5.95472,9.00031 16.054,15.61299 26.92451,17.62927 4.20164,0.77933 13.0024,0.48677 17.07644,-0.56766 z"
       id="path4296"
       inkscape:connector-curvature="0"
       inkscape:export-xdpi="90"
       inkscape:export-ydpi="90" />
    <rect
       style="opacity:0.98999999;fill:#241c1c;fill-rule:evenodd;stroke:none;stroke-width:2.70000005;stroke-linecap:round;stroke-linejoin:round;stroke-miterlimit:4;stroke-dasharray:none;stroke-opacity:1"
       id="rect4314"
       width="35.539272"
       height="10.610293"
       x="177.42754"
       y="278.10495"
       ry="5.0398893"
       rx="0"
       inkscape:export-xdpi="90"
       inkscape:export-ydpi="90" />
    <rect
       style="opacity:0.98999999;fill:#241c1c;fill-rule:evenodd;stroke:none;stroke-width:2.70000005;stroke-linecap:round;stroke-linejoin:round;stroke-miterlimit:4;stroke-dasharray:none;stroke-opacity:1"
       id="rect4318"
       width="43.077888"
       height="7.957716"
       x="270.5835"
       y="281.28802"
       rx="0"
       ry="2.3873138"
       inkscape:export-xdpi="90"
       inkscape:export-ydpi="90" />
    <rect
       style="opacity:0.98999999;fill:#241c1c;fill-rule:evenodd;stroke:none;stroke-width:2.70000005;stroke-linecap:round;stroke-linejoin:round;stroke-miterlimit:4;stroke-dasharray:none;stroke-opacity:1"
       id="rect4320"
       width="22.077419"
       height="4.7746334"
       x="358.89316"
       y="285.00165"
       rx="1.0823053"
       ry="2.131526"
       inkscape:export-xdpi="90"
       inkscape:export-ydpi="90" />
    <rect
       style="opacity:0.98999999;fill:#cccccc;fill-rule:evenodd;stroke:none;stroke-width:2.70000005;stroke-linecap:round;stroke-linejoin:round;stroke-miterlimit:4;stroke-dasharray:none;stroke-opacity:1"
       id="rect4322"
       width="242.31314"
       height="5.8356628"
       x="161.8118"
       y="319.48511"
       ry="2.9178314"
       inkscape:export-xdpi="90"
       inkscape:export-ydpi="90" />
  </g>
</svg>
