<?xml version="1.0" encoding="UTF-8" standalone="no"?>
<!-- Created with Inkscape (http://www.inkscape.org/) -->

<svg
   xmlns:dc="http://purl.org/dc/elements/1.1/"
   xmlns:cc="http://creativecommons.org/ns#"
   xmlns:rdf="http://www.w3.org/1999/02/22-rdf-syntax-ns#"
   xmlns:svg="http://www.w3.org/2000/svg"
   xmlns="http://www.w3.org/2000/svg"
   xmlns:xlink="http://www.w3.org/1999/xlink"
   xmlns:sodipodi="http://sodipodi.sourceforge.net/DTD/sodipodi-0.dtd"
   xmlns:inkscape="http://www.inkscape.org/namespaces/inkscape"
   id="svg3336"
   version="1.1"
   inkscape:version="0.91 r13725"
   width="265.3125"
   height="258.75"
   viewBox="0 0 265.3125 258.75"
   sodipodi:docname="github.svg"
   inkscape:export-filename="C:\Users\Tushita\Desktop\website\images\pathcheck.png"
   inkscape:export-xdpi="90"
   inkscape:export-ydpi="90">
  <metadata
     id="metadata3342">
    <rdf:RDF>
      <cc:Work
         rdf:about="">
        <dc:format>image/svg+xml</dc:format>
        <dc:type
           rdf:resource="http://purl.org/dc/dcmitype/StillImage" />
        <dc:title />
      </cc:Work>
    </rdf:RDF>
  </metadata>
  <defs
     id="defs3340">
    <linearGradient
       inkscape:collect="always"
       id="linearGradient5328">
      <stop
         style="stop-color:#ac9d93;stop-opacity:1;"
         offset="0"
         id="stop5330" />
      <stop
         style="stop-color:#ac9d93;stop-opacity:0;"
         offset="1"
         id="stop5332" />
    </linearGradient>
    <linearGradient
       inkscape:collect="always"
       xlink:href="#linearGradient5328"
       id="linearGradient5326"
       x1="-47.900909"
       y1="180.52321"
       x2="-86.046509"
       y2="185.62338"
       gradientUnits="userSpaceOnUse" />
  </defs>
  <sodipodi:namedview
     pagecolor="#ffffff"
     bordercolor="#666666"
     borderopacity="1"
     objecttolerance="10"
     gridtolerance="10"
     guidetolerance="10"
     inkscape:pageopacity="0"
     inkscape:pageshadow="2"
     inkscape:window-width="1366"
     inkscape:window-height="705"
     id="namedview3338"
     showgrid="false"
     inkscape:snap-smooth-nodes="true"
     inkscape:snap-midpoints="true"
     inkscape:zoom="4.15"
     inkscape:cx="90.074115"
     inkscape:cy="161.47453"
     inkscape:window-x="-8"
     inkscape:window-y="-8"
     inkscape:window-maximized="1"
     inkscape:current-layer="svg3336" />
  <path
     style="fill:#000000"
     d="m 109.20476,205.99238 c -1.28906,-0.20905 -3.1875,-0.74113 -4.21875,-1.1824 -1.03125,-0.44126 -4.40625,-1.30128 -7.499997,-1.91112 -3.09375,-0.60985 -9.84375,-2.34441 -15,-3.85455 -13.02974,-3.81612 -49.6163,-16.94337 -50.01743,-17.94625 -0.18147,-0.45368 -0.94999,-1.32868 -1.70783,-1.94444 -0.75783,-0.61577 -2.19139,-1.85786 -3.18569,-2.7602 -0.99429,-0.90234 -2.15936,-1.64062 -2.58905,-1.64062 -0.42969,0 -0.85819,-0.52735 -0.95222,-1.17188 -1.16554,-7.98878 -1.10196,-8.81889 0.98044,-12.8018 1.43874,-2.75178 3.41064,-4.78523 5.90928,-6.09375 2.0625,-1.0801 3.92779,-2.0713 4.14509,-2.20266 0.21729,-0.13136 -0.75074,-3.53037 -2.15118,-7.55336 -2.93779,-8.43925 -5.26811,-21.58107 -5.26782,-29.7078 1.1e-4,-3.09375 0.63099,-9.51431 1.40195,-14.26789 5.83069,-35.950704 32.08372,-64.333829 68.442438,-73.99566 8.154459,-2.166935 11.187409,-2.489157 23.429519,-2.489157 12.16098,0 15.33018,0.332116 23.4375,2.456135 42.2067,11.057639 71.4402,49.342664 69.56865,91.109072 -0.53171,11.86586 -2.54651,21.49718 -6.46437,30.90151 -1.51192,3.62917 -2.91979,7.02036 -3.12862,7.53599 -0.20882,0.51562 0.94158,1.78125 2.55648,2.8125 5.16606,3.29898 6.84606,6.49412 6.81568,12.96257 -0.0269,5.73553 -0.071,5.8296 -4.90694,10.49029 -4.64496,4.47659 -5.77136,5.00613 -23.41032,11.00572 -23.34622,7.94081 -34.79974,10.87773 -46.65556,11.96347 -9.34374,0.8557 -25.07933,1.00823 -29.53125,0.28628 z m 29.53125,-5.00572 c 2.0625,-0.4999 7.39952,-1.30364 11.86003,-1.7861 4.58937,-0.49638 9.67662,-1.67591 11.71875,-2.71711 1.9848,-1.01196 6.56185,-2.5524 10.17122,-3.42321 3.60938,-0.8708 7.82813,-2.12586 9.375,-2.78902 1.54688,-0.66315 5.13281,-1.94548 7.96875,-2.84961 2.83594,-0.90414 5.78906,-2.00219 6.5625,-2.44014 0.77344,-0.43793 3.09375,-1.59167 5.15625,-2.56385 5.00004,-2.35683 7.10244,-4.90545 7.61618,-9.23268 0.54196,-4.5649 -1.03623,-7.525 -5.74891,-10.78284 -4.57882,-3.16531 -5.34702,-3.18478 -11.24227,-0.28481 -2.57812,1.26822 -5.3414,2.30972 -6.14062,2.31444 -0.79922,0.005 -1.9551,0.51054 -2.56864,1.12408 -0.61353,0.61353 -1.64712,1.20853 -2.29688,1.32223 -0.64974,0.11371 -6.63167,2.41026 -13.29318,5.10347 -18.46463,7.46514 -29.20776,10.30111 -41.42068,10.93419 -11.81054,0.61223 -18.68927,-0.37371 -32.248747,-4.62228 -9.366716,-2.93484 -36.37399,-13.65137 -42.50115,-16.86451 -4.6539,-2.44054 -14.57945,-4.48285 -17.11026,-3.52064 -2.92486,1.11203 -6.95109,6.34671 -6.95109,9.03743 0,1.29885 0.68605,3.52295 1.52456,4.94242 1.76829,2.99349 9.1624,8.09147 13.10552,9.03582 1.49252,0.35744 3.22905,1.05533 3.85897,1.55086 0.62991,0.49553 2.52835,1.2529 4.21875,1.68304 1.6904,0.43014 7.08126,2.43836 11.9797,4.46273 4.89844,2.02435 11.22656,4.11501 14.0625,4.64591 2.835938,0.53091 9.585938,2.11149 15,3.51242 5.414063,1.40093 12.796877,3.09727 16.406247,3.76966 7.83429,1.45943 25.68095,1.71215 30.9375,0.4381 z M 99.642262,172.6903 c 0.688898,-0.6889 1.124538,-4.05057 1.123808,-8.67188 l -9.4e-4,-7.54687 -7.733178,0 c -9.946917,0 -13.627639,-2.03854 -17.52916,-9.70839 -2.710339,-5.32815 -4.236819,-7.25442 -8.858239,-11.17825 -4.41412,-3.74781 -0.55895,-5.37705 5.69788,-2.40799 1.795489,0.85201 4.960094,3.84432 7.032451,6.64957 2.201032,2.97943 5.08086,5.64902 6.925165,6.41962 5.768405,2.4102 13.998711,1.21329 15.006711,-2.18237 0.27016,-0.91009 1.30026,-3.19089 2.28911,-5.06847 l 1.79789,-3.41377 -4.38565,-0.65767 c -15.114905,-2.26658 -25.245211,-11.44973 -28.249247,-25.6078 -2.17001,-10.227309 -1.04851,-18.769699 3.470968,-26.438228 2.187616,-3.7119 2.448142,-5.02782 2.168449,-10.952818 -0.174838,-3.703734 0.19492,-8.287882 0.821684,-10.186993 1.110163,-3.363829 1.237828,-3.439752 4.947347,-2.942201 2.094277,0.280902 6.831712,2.066342 10.527633,3.967647 6.497576,3.34257 6.881226,3.422308 11.598476,2.410639 6.26063,-1.342663 20.17594,-1.345049 26.42656,-0.0045 4.68553,1.004866 5.10347,0.918541 11.80493,-2.438329 7.83861,-3.926487 13.66242,-5.158995 14.94893,-3.163682 0.45357,0.703457 0.86659,5.314192 0.91781,10.246079 0.0812,7.818978 0.40083,9.499428 2.49626,13.124998 4.44354,7.688319 5.54066,16.230679 3.38774,26.377418 -2.96209,13.96041 -11.64074,22.13059 -26.80152,25.23126 l -5.82437,1.19119 2.07437,3.33529 c 1.86247,2.99455 2.10703,4.81976 2.39404,17.86653 0.17804,8.09334 0.74808,15.05043 1.28666,15.70312 1.63888,1.98608 10.28842,1.37225 17.26644,-1.22535 3.54185,-1.31847 14.9749,-6.03518 25.40676,-10.48159 l 18.96703,-8.08436 2.33638,-6.15904 c 4.67716,-12.32969 5.61199,-17.58546 5.59781,-31.47153 -0.0138,-13.49121 -0.9023,-18.692609 -5.20476,-30.468748 -3.98609,-10.91027 -15.15354,-27.264693 -22.58187,-33.070537 -1.69489,-1.324691 -4.76911,-3.912435 -6.83161,-5.750544 -2.0625,-1.838109 -4.58821,-3.618599 -5.6127,-3.956645 -1.02448,-0.338044 -3.34479,-1.590744 -5.15625,-2.783775 -4.169,-2.745728 -18.96254,-7.653579 -28.1373,-9.334734 -17.89983,-3.27991 -41.792688,0.550801 -55.309333,8.867674 -2.478196,1.524849 -6.408534,3.639244 -8.734084,4.698654 -2.32555,1.059411 -4.37105,2.249059 -4.54555,2.643662 -0.1745,0.394603 -2.21572,2.373351 -4.53603,4.397216 -18.80798,16.40504 -30.02824,40.690068 -29.98768,64.905007 0.0138,8.22972 2.48816,21.5458 5.57856,30.0215 1.8652,5.11551 2.43261,5.77936 6.43054,7.52361 29.15668,12.72066 39.774687,17.16256 41.165182,17.2209 0.911431,0.0382 3.344648,0.85071 5.407148,1.80548 4.443084,2.05678 7.176806,2.29194 8.718749,0.75 z m -5.00879,-22.24772 c 0.693328,-1.12182 -1.070268,-2.23334 -2.319001,-1.46158 -1.048461,0.64798 -0.360157,2.3343 0.952792,2.3343 0.454763,0 1.069556,-0.39273 1.366209,-0.87272 z m -6.268553,-1.17807 c -0.579444,-1.73833 -2.597656,-2.02665 -2.597656,-0.37109 0,0.81641 0.667969,1.48438 1.484375,1.48438 0.816407,0 1.317383,-0.50099 1.113281,-1.11329 z m 11.933591,0.17579 c 0.31868,-0.51563 -0.28924,-0.9375 -1.350918,-0.9375 -1.061679,0 -1.930329,0.42187 -1.930329,0.9375 0,0.51562 0.607913,0.9375 1.350919,0.9375 0.74301,0 1.61166,-0.42188 1.930328,-0.9375 z m -17.343747,-3.28125 c 0,-0.77344 -0.632812,-1.40625 -1.40625,-1.40625 -1.463976,0 -1.859969,1.10878 -0.78125,2.18749 1.078719,1.07873 2.1875,0.68273 2.1875,-0.78124 z m -3.75,-4.16342 c 0,-0.4852 -0.421875,-1.14291 -0.9375,-1.46158 -0.515625,-0.31868 -0.9375,0.0783 -0.9375,0.88216 0,0.80387 0.421875,1.46159 0.9375,1.46159 0.515625,0 0.9375,-0.39698 0.9375,-0.88217 z m -3.321286,-3.74055 c 0.296654,-0.48 0.110614,-1.13772 -0.413421,-1.46158 -0.524037,-0.32387 -0.952793,0.0688 -0.952793,0.87271 0,1.64675 0.562552,1.88922 1.366214,0.58887 z"
     id="path4969"
     inkscape:connector-curvature="0"
     inkscape:export-xdpi="90"
     inkscape:export-ydpi="90" />
  <g
     inkscape:groupmode="layer"
     id="layer1"
     inkscape:label="Layer 1" />
  <path
     style="opacity:0.12999998;fill:#552200;fill-rule:evenodd;stroke:#000000;stroke-width:2.41371274;stroke-linecap:round;stroke-linejoin:round;stroke-miterlimit:4;stroke-dasharray:none;stroke-opacity:1"
     d="m 113.00609,201.03221 c -4.84055,-0.63058 -9.32678,-1.56356 -22.930267,-4.76872 -17.845738,-4.20468 -19.276661,-4.62531 -30.555139,-8.98183 -4.724694,-1.825 -8.863798,-3.31818 -9.19801,-3.31818 -0.334211,0 -1.68637,-0.53755 -3.004797,-1.19455 -1.318426,-0.657 -3.69607,-1.64144 -5.283651,-2.18765 -4.728745,-1.62693 -10.828047,-5.96986 -12.5383,-8.92774 -2.501174,-4.32578 -1.781928,-7.39281 2.721536,-11.60528 l 2.44394,-2.28602 3.463845,0.29281 c 4.553868,0.38494 10.560201,2.16947 16.227628,4.82135 15.071519,7.0522 40.683755,16.4291 50.950415,18.65346 14.31825,3.10217 29.86618,1.97043 46.32221,-3.3718 7.50034,-2.43489 27.30337,-10.02861 31.37826,-12.0324 1.59305,-0.78336 3.43954,-1.56644 4.10331,-1.74017 0.66377,-0.17373 3.10796,-1.16199 5.43152,-2.19613 2.32356,-1.03415 4.7761,-1.88027 5.45008,-1.88027 1.6991,0 4.38585,1.46014 7.11675,3.86768 2.98525,2.63177 3.72745,4.14505 3.71447,7.57349 -0.0131,3.46306 -1.25553,6.35273 -3.43674,7.99337 -4.56746,3.4355 -17.55827,8.66745 -31.05405,12.50678 -3.70903,1.05515 -8.61202,2.64001 -10.89552,3.5219 -4.78635,1.84849 -6.42497,2.21883 -17.60099,3.97792 -7.01265,1.10378 -9.89225,1.30472 -19.79245,1.38117 -6.3722,0.0492 -12.23752,0.005 -13.03405,-0.0992 z"
     id="path4971"
     inkscape:connector-curvature="0"
     inkscape:export-xdpi="90"
     inkscape:export-ydpi="90" />
  <path
     style="opacity:0.5;fill:#c8c4b7;fill-rule:evenodd;stroke:#000000;stroke-width:2.41371274;stroke-linecap:round;stroke-linejoin:round;stroke-miterlimit:4;stroke-dasharray:none;stroke-opacity:1"
     d="m 113.00609,200.03857 c -5.26691,-0.47965 -35.7453,-7.58091 -43.446825,-10.12281 -8.307561,-2.74193 -28.14649,-10.42207 -31.063421,-12.02542 -10.165939,-5.5879 -12.165465,-12.20994 -5.32313,-17.62917 1.886309,-1.49399 2.023489,-1.52478 5.402838,-1.21263 3.994948,0.36901 10.825338,2.6549 21.087491,7.05726 10.69193,4.58672 29.496578,11.76415 35.930904,13.71423 9.539153,2.89108 14.223343,3.71209 22.841933,4.00354 16.32608,0.55209 25.59851,-1.53994 52.64631,-11.87793 5.65653,-2.16199 11.30462,-4.45198 12.55131,-5.08887 1.2467,-0.63689 4.85985,-2.17246 8.02923,-3.41237 6.63379,-2.59525 7.38131,-2.58955 11.27781,0.0859 4.76269,3.27016 6.20152,8.0413 3.83829,12.72773 -2.35357,4.66728 -9.82677,7.95977 -39.22283,17.28054 -10.42335,3.30499 -17.66535,4.85052 -29.676,6.33321 -3.76849,0.46521 -20.37445,0.57659 -24.87391,0.16683 z"
     id="path4977"
     inkscape:connector-curvature="0"
     inkscape:export-xdpi="90"
     inkscape:export-ydpi="90" />
  <circle
     style="opacity:0.12999998;fill:#c8c4b7;fill-rule:evenodd;stroke:#000000;stroke-width:5;stroke-linecap:round;stroke-linejoin:round;stroke-miterlimit:4;stroke-dasharray:none;stroke-opacity:1"
     id="path4981"
     cx="183.07494"
     cy="111.33397"
     r="1.6795865"
     inkscape:export-xdpi="90"
     inkscape:export-ydpi="90" />
  <circle
     style="opacity:0.12999998;fill:#c8c4b7;fill-rule:evenodd;stroke:#000000;stroke-width:5;stroke-linecap:round;stroke-linejoin:round;stroke-miterlimit:4;stroke-dasharray:none;stroke-opacity:1"
     id="path4981-0"
     cx="194.83203"
     cy="122.0575"
     r="1.6795865"
     inkscape:export-xdpi="90"
     inkscape:export-ydpi="90" />
  <circle
     style="opacity:0.12999998;fill:#c8c4b7;fill-rule:evenodd;stroke:#000000;stroke-width:5;stroke-linecap:round;stroke-linejoin:round;stroke-miterlimit:4;stroke-dasharray:none;stroke-opacity:1"
     id="path4981-01"
     cx="191.73128"
     cy="98.543289"
     r="1.6795865"
     inkscape:export-xdpi="90"
     inkscape:export-ydpi="90" />
  <path
     style="opacity:0.12999998;fill:#ac9d93;fill-rule:evenodd;stroke:#000000;stroke-width:1.29198968;stroke-linecap:round;stroke-linejoin:round;stroke-miterlimit:4;stroke-dasharray:none;stroke-opacity:1"
     d="m 178.02662,152.29317 c -3.27716,-1.61516 -2.8571,-6.5378 0.64748,-7.5878 1.54225,-0.46207 2.83512,-0.13347 3.98019,1.0116 3.24169,3.24169 -0.52701,8.59724 -4.62767,6.5762 z m 2.40089,-3.70342 c 0,-0.47357 -0.15549,-0.66807 -0.58255,-0.72872 -0.34942,-0.0496 -0.64485,0.0796 -0.73824,0.323 -0.25728,0.67046 0.10333,1.2246 0.73824,1.13444 0.42706,-0.0606 0.58255,-0.25515 0.58255,-0.72872 z"
     id="path5013"
     inkscape:connector-curvature="0"
     inkscape:export-xdpi="90"
     inkscape:export-ydpi="90" />
  <path
     style="opacity:0.12999998;fill:#ac9d93;fill-rule:evenodd;stroke:#000000;stroke-width:1.29198968;stroke-linecap:round;stroke-linejoin:round;stroke-miterlimit:4;stroke-dasharray:none;stroke-opacity:1"
     d="m 179.55833,134.67079 c -3.30777,-0.69921 -4.26929,-5.2996 -1.51725,-7.25923 0.94957,-0.67615 3.00176,-0.91287 4.07174,-0.46968 1.0219,0.42329 1.98708,1.59022 2.30648,2.7886 0.76467,2.86905 -1.89104,5.5681 -4.86097,4.94031 z m 1.53663,-3.48793 c 0.24017,-0.28939 0.26295,-0.53085 0.0778,-0.82441 -0.37882,-0.60056 -0.75336,-0.6558 -1.22804,-0.18111 -0.31631,0.31631 -0.35258,0.5376 -0.1501,0.91593 0.32394,0.60529 0.8427,0.64104 1.30036,0.0896 z"
     id="path5015"
     inkscape:connector-curvature="0"
     inkscape:export-xdpi="90"
     inkscape:export-ydpi="90" />
  <path
     style="opacity:0.12999998;fill:#ac9d93;fill-rule:evenodd;stroke:#000000;stroke-width:1.29198968;stroke-linecap:round;stroke-linejoin:round;stroke-miterlimit:4;stroke-dasharray:none;stroke-opacity:1"
     d="m 192.75877,142.27229 c -3.27715,-1.61516 -2.85709,-6.5378 0.64748,-7.5878 1.54225,-0.46206 2.83513,-0.13347 3.9802,1.01161 3.24169,3.24168 -0.52701,8.59723 -4.62768,6.57619 z m 2.4009,-3.70342 c 0,-0.47357 -0.15549,-0.66807 -0.58255,-0.72872 -0.34943,-0.0496 -0.64486,0.0796 -0.73824,0.323 -0.25728,0.67046 0.10333,1.2246 0.73824,1.13444 0.42706,-0.0606 0.58255,-0.25514 0.58255,-0.72872 z"
     id="path5017"
     inkscape:connector-curvature="0"
     inkscape:export-xdpi="90"
     inkscape:export-ydpi="90" />
  <path
     style="opacity:0.12999998;fill:#ac9d93;fill-rule:evenodd;stroke:#000000;stroke-width:8.57887554;stroke-linecap:round;stroke-linejoin:round;stroke-miterlimit:4;stroke-dasharray:none;stroke-opacity:1"
     id="path5019"
     sodipodi:type="arc"
     sodipodi:cx="133.43497"
     sodipodi:cy="169.25963"
     sodipodi:rx="67.907806"
     sodipodi:ry="25.019491"
     sodipodi:start="6.1557979"
     sodipodi:end="1.2417488"
     d="m 200.79253,166.08107 a 67.907806,25.019491 0 0 1 -45.41371,26.85577"
     sodipodi:open="true"
     inkscape:export-xdpi="90"
     inkscape:export-ydpi="90" />
  <path
     style="opacity:0.12999998;fill:url(#linearGradient5326);fill-rule:evenodd;stroke:#000000;stroke-width:8.3103981;stroke-linecap:round;stroke-linejoin:round;stroke-miterlimit:4;stroke-dasharray:none;stroke-opacity:1;fill-opacity:1"
     id="path5019-7"
     sodipodi:type="arc"
     sodipodi:cx="-82.578972"
     sodipodi:cy="166.48692"
     sodipodi:rx="46.598152"
     sodipodi:ry="21.806664"
     sodipodi:start="6.1557979"
     sodipodi:end="1.2417488"
     d="m -36.358396,163.71654 a 46.598152,21.806664 0 0 1 -31.162765,23.40713"
     sodipodi:open="true"
     transform="scale(-1,1)"
     inkscape:export-xdpi="90"
     inkscape:export-ydpi="90" />
  <path
     style="opacity:0.75;fill:#f2f2f2;fill-rule:evenodd;stroke:#999999;stroke-width:1.70664561;stroke-linecap:round;stroke-linejoin:round;stroke-miterlimit:4;stroke-dasharray:none;stroke-opacity:1"
     d="m 141.19694,173.36264 c -0.58651,-0.18296 -1.25351,-0.55812 -1.4822,-0.83369 -0.65692,-0.79153 -0.98014,-4.38597 -1.36707,-15.20284 -0.3666,-10.24821 -0.7703,-14.7191 -1.47499,-16.33517 -0.21631,-0.49607 -0.97182,-1.86194 -1.67892,-3.03526 -0.70709,-1.17332 -1.20787,-2.1333 -1.11284,-2.1333 0.79916,0 8.75139,-1.89753 10.91305,-2.60403 10.44453,-3.4136 17.27147,-10.13639 20.40566,-20.09436 1.50086,-4.76853 2.05522,-9.16302 1.8652,-14.785823 -0.20362,-6.025445 -0.98939,-9.057008 -3.80026,-14.661728 -1.01076,-2.015412 -2.0136,-4.278099 -2.22852,-5.028197 -0.21492,-0.750095 -0.53399,-4.858739 -0.70903,-9.130316 -0.3808,-9.29245 -0.58515,-10.295984 -2.20544,-10.830727 -2.33985,-0.772221 -6.29304,0.365763 -14.19515,4.086284 -3.14211,1.479383 -5.80402,2.508631 -6.79003,2.62541 -0.96886,0.114744 -2.98322,-0.06499 -5.00335,-0.446445 -4.91964,-0.928958 -20.95234,-0.930044 -25.8678,-0.0017 -1.8545,0.350224 -4.01514,0.564262 -4.80142,0.475635 -0.78745,-0.08876 -3.872461,-1.313041 -6.868051,-2.725577 -6.017124,-2.837308 -8.914062,-3.869526 -11.803414,-4.205717 -1.665713,-0.193815 -2.022651,-0.129329 -2.626493,0.474514 -1.398084,1.398084 -1.812895,3.838312 -2.068926,12.170954 l -0.241217,7.85057 -2.28754,4.454707 c -3.598715,7.008064 -4.760541,12.928745 -3.999271,20.380366 1.368944,13.39981 7.496912,22.82434 18.124846,27.8752 3.503464,1.66499 7.629221,2.87294 11.836746,3.46557 1.73651,0.24458 3.15729,0.54742 3.15729,0.67298 0,0.12555 -1.00843,2.32535 -2.24096,4.88843 -1.99671,4.15226 -2.38218,4.73221 -3.536674,5.32119 -2.236006,1.14072 -5.46427,1.55692 -8.461747,1.09091 -4.750165,-0.73849 -7.125823,-2.3517 -11.418367,-7.75376 -3.721567,-4.68354 -6.832188,-6.8782 -10.896923,-7.68823 -2.347774,-0.46787 -3.722166,-0.0321 -3.722166,1.18016 0,0.60006 1.104718,1.94051 4.015511,4.87239 3.674914,3.70154 4.217764,4.41914 6.399922,8.46012 4.774679,8.84189 7.736047,10.39433 19.877527,10.42039 l 5.546597,0.0119 -0.008,6.39992 c -0.004,3.51996 -0.15049,7.01432 -0.32448,7.76524 -0.713192,3.07811 -3.132399,3.3588 -8.988023,1.04284 -2.109735,-0.83443 -4.56,-1.67941 -5.445033,-1.87775 -2.236067,-0.50112 -7.629177,-2.69355 -24.828482,-10.09337 -19.492524,-8.38645 -19.62304,-8.44977 -20.666647,-10.02677 -2.656513,-4.01426 -6.224758,-17.85067 -7.315515,-28.36701 -1.473867,-14.21002 1.816925,-30.187715 9.176841,-44.556043 5.051163,-9.861091 9.982415,-16.313926 19.328552,-25.292557 6.337508,-6.088307 6.353455,-6.100603 11.018298,-8.495217 2.569382,-1.318947 5.82001,-3.074036 7.223613,-3.900197 7.975442,-4.694341 17.166937,-7.728617 28.765366,-9.495954 5.51924,-0.841007 21.24538,-0.820201 25.85525,0.03421 10.45059,1.936947 24.48486,6.616196 30.03697,10.014802 1.22025,0.746951 3.06343,1.747551 4.09595,2.223554 2.04143,0.941123 3.51709,2.061798 11.01298,8.363727 11.12311,9.351399 20.77683,23.914605 25.65673,38.70472 3.23416,9.802174 3.43646,11.347755 3.43646,26.255035 0,12.02767 -0.0477,13.03664 -0.79103,16.72513 -0.7995,3.96727 -3.02206,10.97897 -5.46381,17.23712 l -1.33177,3.41329 -7.65221,3.27315 c -27.23189,11.64814 -36.84121,15.51951 -41.08049,16.55036 -3.78338,0.91999 -9.31891,1.33445 -10.96494,0.82096 z m 41.10353,-20.69653 c 1.27275,-0.80658 2.11433,-2.51225 2.11574,-4.28801 0.001,-1.30844 -0.19342,-1.83119 -1.03977,-2.79513 -1.98787,-2.26406 -4.93081,-2.34247 -6.99645,-0.18641 -0.90049,0.93991 -1.00773,1.28317 -1.00773,3.22566 0,1.94415 0.10683,2.28532 1.01117,3.22924 1.6357,1.7073 3.99578,2.03224 5.91704,0.81465 z m 14.77299,-10.11065 c 0.70673,-0.47627 1.40668,-1.3913 1.81155,-2.36821 0.6363,-1.53532 0.6385,-1.64788 0.0616,-3.15842 -1.38007,-3.61367 -5.308,-4.31056 -8.00758,-1.42069 -1.08245,1.15875 -1.36243,3.75981 -0.56972,5.29274 1.21839,2.3561 4.47171,3.15902 6.70415,1.65458 z m -14.50492,-7.62275 c 1.28933,-0.61182 2.08253,-1.74865 2.38321,-3.01282 0.49171,-2.06732 -0.33373,-4.47518 -2.46051,-5.48439 -1.27999,-0.60739 -3.26839,-0.51975 -4.62006,0.20364 -1.09849,0.5879 -1.98441,2.40192 -1.98441,4.0633 0,2.68673 1.84111,4.55915 4.12707,4.73327 0.81604,0.0622 1.68876,-0.0921 2.55466,-0.503 z m 14.3972,-9.34915 c 1.46333,-0.8922 2.28841,-2.62772 1.99437,-4.19507 -0.88444,-4.71449 -7.37973,-4.71449 -8.26417,0 -0.43916,2.34091 1.7084,4.87412 4.13208,4.87412 0.5632,0 1.52517,-0.30557 2.13772,-0.67905 z m -12.42393,-10.37023 c 3.26519,-1.36429 3.58551,-5.98519 0.5246,-7.56805 -2.00145,-1.03499 -4.63528,-0.30865 -5.59242,1.54225 -1.19713,2.315 -0.29593,5.00584 2.01325,6.01126 1.34534,0.58576 1.68358,0.58737 3.05457,0.0145 l 0,0 z m 9.92858,-13.50855 c 1.87514,-1.761598 1.95725,-4.336448 0.19451,-6.099191 -2.79998,-2.799978 -7.49853,-0.578837 -7.06856,3.341516 0.13268,1.209705 0.42857,1.763805 1.43381,2.685045 1.16087,1.06385 1.40687,1.14731 2.94607,0.99941 1.10633,-0.1063 1.95746,-0.42256 2.49417,-0.92678 z"
     id="path3358"
     inkscape:connector-curvature="0"
     inkscape:export-xdpi="90"
     inkscape:export-ydpi="90"
     sodipodi:nodetypes="ccsssssssssssssscssssscssssssssssssssccssssssssssssssssssscssccscssssssscssscsssssccssssscssscccssssss" />
</svg>
