<?xml version="1.0" encoding="UTF-8" standalone="no"?>
<!-- Created with Inkscape (http://www.inkscape.org/) -->

<svg
   xmlns:dc="http://purl.org/dc/elements/1.1/"
   xmlns:cc="http://creativecommons.org/ns#"
   xmlns:rdf="http://www.w3.org/1999/02/22-rdf-syntax-ns#"
   xmlns:svg="http://www.w3.org/2000/svg"
   xmlns="http://www.w3.org/2000/svg"
   xmlns:sodipodi="http://sodipodi.sourceforge.net/DTD/sodipodi-0.dtd"
   xmlns:inkscape="http://www.inkscape.org/namespaces/inkscape"
   width="210mm"
   height="297mm"
   viewBox="0 0 744.09448819 1052.3622047"
   id="svg3644"
   version="1.1"
   inkscape:version="0.91 r13725"
   inkscape:export-filename="C:\Users\Tushita\Desktop\website\images\linkedIn.png"
   inkscape:export-xdpi="90"
   inkscape:export-ydpi="90"
   sodipodi:docname="linkedIn.svg">
  <defs
     id="defs3646" />
  <sodipodi:namedview
     id="base"
     pagecolor="#ffffff"
     bordercolor="#666666"
     borderopacity="1.0"
     inkscape:pageopacity="0.0"
     inkscape:pageshadow="2"
     inkscape:zoom="2.65"
     inkscape:cx="-38.293526"
     inkscape:cy="468.42576"
     inkscape:document-units="px"
     inkscape:current-layer="layer1-4"
     showgrid="false"
     inkscape:window-width="1366"
     inkscape:window-height="705"
     inkscape:window-x="-8"
     inkscape:window-y="-8"
     inkscape:window-maximized="1" />
  <metadata
     id="metadata3649">
    <rdf:RDF>
      <cc:Work
         rdf:about="">
        <dc:format>image/svg+xml</dc:format>
        <dc:type
           rdf:resource="http://purl.org/dc/dcmitype/StillImage" />
        <dc:title></dc:title>
      </cc:Work>
    </rdf:RDF>
  </metadata>
  <g
     inkscape:label="Layer 1"
     inkscape:groupmode="layer"
     id="layer1">
    <g
       id="layer1-4"
       inkscape:label="Layer 1"
       transform="translate(-23.655087,413.53684)">
      <rect
         ry="20.932526"
         y="134.92546"
         x="54.157013"
         height="129.94641"
         width="224.71043"
         id="rect3336"
         style="opacity:0.5;fill:#0094ec;fill-rule:evenodd;stroke:#000000;stroke-width:2.70000005;stroke-linecap:round;stroke-linejoin:round;stroke-miterlimit:4;stroke-dasharray:none;stroke-opacity:1" />
      <rect
         ry="11.033185"
         y="177.95378"
         x="106.96367"
         height="74.780479"
         width="23.736263"
         id="rect3338"
         style="opacity:1;fill:#dcf4fc;fill-rule:evenodd;stroke:#000000;stroke-width:2.70000005;stroke-linecap:round;stroke-linejoin:round;stroke-miterlimit:4;stroke-dasharray:none;stroke-opacity:1" />
      <rect
         ry="10.545093"
         y="152.08481"
         x="107.52012"
         height="21.090185"
         width="22.536627"
         id="rect3340"
         style="opacity:1;fill:#dcf4fc;fill-rule:evenodd;stroke:#000000;stroke-width:2.45027685;stroke-linecap:round;stroke-linejoin:round;stroke-miterlimit:4;stroke-dasharray:none;stroke-opacity:1" />
      <rect
         ry="11.033185"
         y="177.86984"
         x="147.48875"
         height="74.780479"
         width="23.736263"
         id="rect3338-6"
         style="opacity:1;fill:#dcf4fc;fill-rule:evenodd;stroke:#000000;stroke-width:2.70000005;stroke-linecap:round;stroke-linejoin:round;stroke-miterlimit:4;stroke-dasharray:none;stroke-opacity:1" />
      <rect
         rx="11.868132"
         ry="12.819073"
         y="186.76817"
         x="198.99812"
         height="65.503326"
         width="23.736263"
         id="rect3338-6-2"
         style="opacity:1;fill:#dcf4fc;fill-rule:evenodd;stroke:#000000;stroke-width:2.70000005;stroke-linecap:round;stroke-linejoin:round;stroke-miterlimit:4;stroke-dasharray:none;stroke-opacity:1" />
      <rect
         rx="16.657124"
         ry="6.7362795"
         y="183.65393"
         x="166.80467"
         height="24.333099"
         width="55.337143"
         id="rect3374"
         style="opacity:1;fill:#dcf4fc;fill-rule:evenodd;stroke:#000000;stroke-width:2.33287549;stroke-linecap:round;stroke-linejoin:round;stroke-miterlimit:4;stroke-dasharray:none;stroke-opacity:1" />
      <path
         transform="matrix(0.46153846,0,0,0.42906831,31.093835,58.93605)"
         inkscape:transform-center-y="0.69977978"
         inkscape:transform-center-x="1.2254859"
         d="m 482.88287,219.02888 -29.42302,-1.49046 -17.90817,23.39301 -7.6747,-28.44353 -27.78201,-9.80284 24.6798,-16.08861 0.73794,-29.45151 22.92765,18.50023 28.23809,-8.39919 -10.50973,27.52238 z"
         inkscape:randomized="0"
         inkscape:rounded="0"
         inkscape:flatsided="false"
         sodipodi:arg2="1.1373894"
         sodipodi:arg1="0.50907089"
         sodipodi:r2="22.182112"
         sodipodi:r1="44.364223"
         sodipodi:cy="197.40726"
         sodipodi:cx="444.14413"
         sodipodi:sides="5"
         id="path3376"
         style="opacity:1;fill:#e8cc48;fill-rule:evenodd;stroke:#000000;stroke-width:2.70000005;stroke-linecap:round;stroke-linejoin:round;stroke-miterlimit:4;stroke-dasharray:none;stroke-opacity:1"
         sodipodi:type="star" />
      <path
         transform="matrix(0.46153846,0,0,0.42906831,29.161468,62.317693)"
         inkscape:transform-center-y="-1.2073586"
         inkscape:transform-center-x="-0.35644134"
         d="m 516.21621,304.61445 -21.06942,-12.95186 -22.614,10.01387 5.80714,-24.04055 -16.51188,-18.41274 24.65843,-1.90602 12.40911,-21.39358 9.43261,22.86257 24.18112,5.19079 -18.82876,16.03586 z"
         inkscape:randomized="0"
         inkscape:rounded="0"
         inkscape:flatsided="false"
         sodipodi:arg2="1.6379514"
         sodipodi:arg1="1.0096329"
         sodipodi:r2="18.621647"
         sodipodi:r1="37.24329"
         sodipodi:cy="273.08292"
         sodipodi:cx="496.39639"
         sodipodi:sides="5"
         id="path3378"
         style="opacity:1;fill:#e8cc48;fill-rule:evenodd;stroke:#000000;stroke-width:2.70000005;stroke-linecap:round;stroke-linejoin:round;stroke-miterlimit:4;stroke-dasharray:none;stroke-opacity:1"
         sodipodi:type="star" />
      <path
         transform="matrix(0.46153846,0,0,0.42906831,29.161468,62.317693)"
         inkscape:transform-center-y="-1.3197535"
         inkscape:transform-center-x="0.34278291"
         d="m 388.28827,179.38922 -24.02352,-10.82677 -22.53814,13.65214 2.8732,-26.19339 -19.94863,-17.21629 25.79926,-5.36164 10.20921,-24.2924 13.07162,22.87972 26.25826,2.20277 -17.72055,19.50207 z"
         inkscape:randomized="0"
         inkscape:rounded="0"
         inkscape:flatsided="false"
         sodipodi:arg2="1.5101905"
         sodipodi:arg1="0.88187194"
         sodipodi:r2="19.840284"
         sodipodi:r1="39.680569"
         sodipodi:cy="148.75859"
         sodipodi:cx="363.06305"
         sodipodi:sides="5"
         id="path3380"
         style="opacity:1;fill:#e8cc48;fill-rule:evenodd;stroke:#000000;stroke-width:2.70000005;stroke-linecap:round;stroke-linejoin:round;stroke-miterlimit:4;stroke-dasharray:none;stroke-opacity:1"
         sodipodi:type="star" />
      <path
         inkscape:connector-curvature="0"
         d="m 212.71148,205.22478 c 0.24706,0.72871 0.36066,3.62829 0.86409,3.98644 0.0967,0.0688 0.2321,-0.0497 0.34814,-0.0745 0.15428,-0.10752 0.63947,-0.38703 0.46283,-0.32256 -0.51302,0.18725 -0.93776,0.71345 -1.48357,0.69514 -0.32024,-0.0108 0.43215,-0.47378 0.63268,-0.72369 0.66351,-0.8269 1.21872,-1.73582 1.82969,-2.60094 0.82544,-0.46404 1.57236,-1.11012 2.47633,-1.39212 0.74015,-0.2309 0.98591,3.74481 0.99363,4.11527 -0.16387,1.19465 -0.0511,1.68369 -2.47922,1.60323 -0.40165,-0.0133 -0.36691,-0.71599 -0.52231,-1.0866 -0.43145,-1.02891 -0.79935,-2.19075 -1.15352,-3.24477 0,0 2.04877,-1.12924 2.04877,-1.12924 l 0,0 c 0.39473,1.16751 0.67428,2.07808 1.16227,3.2044 0.14121,0.32593 0.65158,0.64132 0.47909,0.95183 -0.36119,0.65021 -1.09361,1.04571 -1.76571,1.3643 -0.17823,0.0845 0.0753,-0.38723 0.11293,-0.58085 -0.003,-0.92701 -0.0609,-1.83614 -0.27549,-2.74319 -0.0582,-0.24594 -0.11307,-0.49751 -0.22531,-0.72395 -0.0531,-0.10708 -0.34326,-0.16663 -0.25732,-0.2497 0.45341,-0.43824 1.05644,-0.68883 1.58466,-1.03324 -1.64541,2.26634 -2.57605,4.31747 -5.57152,5.29027 -0.15929,-0.0471 -0.35709,-0.0274 -0.47786,-0.14144 -0.55238,-0.52172 -0.58498,-3.1874 -0.90226,-4.03119 0,0 2.11898,-1.1329 2.11898,-1.1329 z"
         id="path3390"
         style="opacity:1;fill:#f2f2f2;fill-rule:evenodd;stroke:#000000;stroke-width:2.70000005;stroke-linecap:round;stroke-linejoin:round;stroke-miterlimit:4;stroke-dasharray:none;stroke-opacity:1" />
      <path
         inkscape:connector-curvature="0"
         d="m 219.18203,199.97259 c -1.97337,2.01632 -2.72864,4.9064 -3.51501,7.53904 -0.43684,1.55809 -0.52773,3.11722 -2.77956,3.33166 -0.35877,0.0342 -0.0968,-0.71637 -0.0975,-1.07675 -2.8e-4,-0.14588 0.20133,-3.06733 0.20421,-3.10966 -0.45819,-0.2131 0.45959,-1.82311 -0.16287,-2.23761 -0.14933,-0.0994 -0.56259,0.31586 -0.39138,0.36946 0.42241,0.13224 1.17165,-0.49194 1.32564,-0.077 0.21365,0.57576 -0.5047,1.12043 -0.72584,1.69336 -0.23324,0.60428 -0.4243,1.22401 -0.63645,1.83601 -0.17023,0.5044 -0.33834,1.00951 -0.51069,1.51319 -0.34155,0.99813 -0.44329,2.12125 -2.37666,1.19181 -0.0143,-0.007 0.35458,-2.37416 0.52687,-3.45644 -0.0765,-0.5056 -0.51783,-2.97984 1.81026,-0.36961 0.38268,0.42907 -0.35929,1.09234 -0.53056,1.64117 -0.47504,1.52229 -0.88021,3.04564 -1.49155,4.51951 -3.0037,1.66157 -2.46976,1.59743 -2.32625,-0.93822 0,0 2.11355,-1.06221 2.11355,-1.06221 l 0,0 c -0.11649,2.14811 0.35584,1.57336 -1.94038,2.9884 0.66436,-1.45828 1.06529,-2.97511 1.52661,-4.50836 0.16382,-0.54445 0.13813,-1.19143 0.49846,-1.63124 0.66035,-0.80603 1.57813,-1.36827 2.43942,-1.95471 0.0758,-0.0516 0.0196,0.18249 0.0294,0.27373 -0.22918,1.35958 -0.14569,0.81665 -0.35875,2.29942 -0.0547,0.38084 0.081,0.84442 -0.16184,1.14286 -3.84832,4.72945 -1.68391,0.52618 -1.35941,-0.65982 0.10135,-0.29901 1.06937,-3.26784 1.31731,-3.5646 0.76773,-0.91891 1.73954,-1.65698 2.7118,-2.35591 0.16302,-0.11719 0.45959,-0.16786 0.60175,-0.0261 0.37728,0.37626 0.17398,2.15399 0.16807,2.3221 -0.0352,0.54469 -0.0739,1.08918 -0.10573,1.63408 -0.10669,1.82574 0.20902,2.63146 -2.09808,3.31618 -0.68604,0.20361 2.2501,-2.86998 0.66279,-2.042 0.78939,-2.65615 1.53771,-5.52228 3.40548,-7.6481 0,0 2.22695,-0.89369 2.22695,-0.89369 z"
         id="path3392"
         style="opacity:1;fill:#f2f2f2;fill-rule:evenodd;stroke:#000000;stroke-width:2.70000005;stroke-linecap:round;stroke-linejoin:round;stroke-miterlimit:4;stroke-dasharray:none;stroke-opacity:1" />
      <path
         inkscape:connector-curvature="0"
         id="path3394"
         d="m 213.56836,200.40625 -2.13086,1.06641 c -0.10443,2.20355 -0.17635,4.4087 -0.25391,6.61328 0.0794,-0.0301 0.15954,-0.0597 0.24219,-0.082 0.50524,-0.35812 1.0179,-0.70375 1.58789,-0.93555 0.1669,-0.0679 0.10733,0.34786 0.12305,0.52734 0.0274,0.31324 0.002,0.62894 0.006,0.94336 0.0187,1.58517 0.22128,1.00618 -1.47266,2.08789 1.47756,0.19686 1.52799,-0.0591 1.51758,-0.78515 0.0729,-3.14699 0.16991,-6.2944 0.38086,-9.43555 z m -1.89844,10.2207 c -0.082,-0.0109 -0.15637,-0.0193 -0.24804,-0.0332 -0.0307,0.0857 -0.0595,0.17194 -0.0898,0.25781 0.11614,-0.078 0.23604,-0.15957 0.33789,-0.22461 z m -0.33789,0.22461 c -0.10451,0.0702 -0.18789,0.11921 -0.30469,0.20117 -0.041,0.0287 0.0326,-0.0932 0.0488,-0.14062 0.004,-0.12044 0.009,-0.24088 0.0137,-0.36133 -0.0257,-0.004 -0.0342,-0.003 -0.0605,-0.008 -0.27861,-0.0481 -0.0599,-0.518 -0.0215,-0.83399 -0.13118,0.44616 -0.26507,0.86326 -0.51953,1.78907 -0.11595,0.42186 -0.217,0.84779 -0.32031,1.27343 -0.0116,-0.0935 -0.0281,-0.18971 -0.0234,-0.27539 0.0603,-1.11991 0.0774,-2.24009 0.0937,-3.36132 0.0603,-0.14419 0.11466,-0.29045 0.17774,-0.4336 0.16263,-0.10222 0.31805,-0.21784 0.47656,-0.32812 -5.3e-4,-0.001 5.1e-4,-0.003 0,-0.004 l -0.64649,0.30664 c 1e-5,-6.5e-4 -10e-6,-0.001 0,-0.002 l -0.0527,0.0273 -0.83789,0.39649 c -0.003,0.0105 -0.007,0.0208 -0.01,0.0312 l -0.82617,0.41992 c 0.13019,0.40291 0.24126,0.81183 0.36524,1.21679 -0.34679,1.22256 -0.69317,2.44517 -1.03321,3.66993 -0.21279,-0.0721 0.13795,-0.59944 0.16406,-0.88282 0.11636,-1.2635 0.10762,-2.54312 0.125,-3.81054 l 0.37891,-0.19336 c -0.45368,-1.4041 -0.94332,-2.79685 -1.50195,-4.16602 l -2.09375,1.16407 c 1.12088,2.56162 1.93443,5.23182 2.65625,7.92773 0.0735,0.12798 0.11579,0.18618 0.17187,0.28125 -0.12551,0.40183 -0.26157,0.80038 -0.33007,1.21484 -0.0145,0.0875 -0.005,0.17714 0.002,0.26563 0.1026,-0.19753 0.37928,-0.52875 0.46289,-0.72656 0.0537,-0.12716 0.0973,-0.25848 0.14844,-0.38672 0.27137,0.16077 0.66413,-0.27594 1.91601,-1.53907 -0.11567,0.44857 -0.22927,0.89836 -0.38086,1.33594 -0.0403,0.11642 -0.1454,0.19788 -0.21875,0.29688 -0.62993,0.39303 -1.16251,1.03429 -1.89062,1.17968 -0.0151,0.003 -0.0182,-0.004 -0.0293,-0.004 0.015,0.11093 0.0337,0.22147 0.041,0.33203 0.71614,-0.43796 1.51401,-0.76473 2.14843,-1.31445 0.14108,-0.12225 0.90157,-2.24121 0.91797,-2.28711 0.27019,-0.75445 0.52587,-1.51476 0.79297,-2.27149 z m -3.90039,5.54102 c -0.007,-0.0522 -0.004,-0.10418 -0.008,-0.15625 -0.0466,0.0897 -0.0625,0.15609 0.008,0.15625 z m 3.46094,-8.02344 0.0156,-0.008 c 0.0908,-0.0633 0.18314,-0.12327 0.27344,-0.1875 10e-4,-0.0293 9.2e-4,-0.0586 0.002,-0.0879 -0.094,0.0357 -0.18957,0.0684 -0.27734,0.11914 -0.058,0.0335 -0.0434,0.0949 -0.0137,0.16406 z m 0.28906,-0.19531 c -6.9e-4,0.0195 -10e-4,0.0391 -0.002,0.0586 l 0.29687,-0.14062 c -0.16846,0.56118 -0.24229,0.84726 -0.33594,1.16015 -0.0153,0.43299 -0.0351,0.86586 -0.0508,1.29883 0.14099,0.024 0.2094,0.0244 0.33204,0.043 0.34552,-0.96441 0.71804,-1.91861 1.18359,-2.83398 -0.38518,0.10105 -0.79565,0.14033 -1.17969,0.24414 -0.0811,0.0575 -0.16313,0.1123 -0.24414,0.16992 z m -0.041,1.07812 c 0.012,-0.33986 0.0271,-0.67966 0.0391,-1.01953 l -0.27149,0.12891 c -0.005,0.004 -0.0103,0.008 -0.0156,0.0117 0.0422,0.0964 0.12112,0.21011 0.1289,0.30273 0.0262,0.31382 0.003,0.62843 0.004,0.94336 8e-5,0.0248 -0.0142,0.0621 -0.0176,0.0898 0.0335,-0.11398 0.0959,-0.33373 0.13281,-0.45703 z m -1.92773,2.60547 c 0.14579,0.49664 0.3075,0.98772 0.44727,1.48633 0.0702,0.10128 0.31549,0.23949 0.21093,0.30469 -0.48262,0.30096 -1.00583,0.64392 -1.55859,0.75586 0.0363,-0.0982 0.0774,-0.19463 0.11328,-0.29297 0.27264,-0.74747 0.52686,-1.50158 0.78711,-2.25391 z"
         style="opacity:1;fill:#6cdcfc;fill-rule:evenodd;stroke:#000000;stroke-width:2.70000005;stroke-linecap:round;stroke-linejoin:round;stroke-miterlimit:4;stroke-dasharray:none;stroke-opacity:1" />
      <path
         inkscape:connector-curvature="0"
         d="m 195.65831,191.48062 c 2.37415,1.01182 4.71946,2.09025 7.03236,3.2349 0,0 -1.97667,1.30138 -1.97667,1.30138 l 0,0 c -2.30802,-1.1496 -4.64414,-2.24839 -7.04193,-3.19934 0,0 1.98624,-1.33694 1.98624,-1.33694 z"
         id="path3399"
         style="opacity:1;fill:#ccf0fc;fill-rule:evenodd;stroke:#c4f0fc;stroke-width:2.70000005;stroke-linecap:round;stroke-linejoin:round;stroke-miterlimit:4;stroke-dasharray:none;stroke-opacity:1" />
      <path
         inkscape:connector-curvature="0"
         d="m 213.78134,202.06378 c 1.22348,4.61607 1.96783,9.34001 3.0368,13.99164 -0.80108,-0.092 -1.60216,-0.18392 -2.40325,-0.27588 0,0 2.07134,-1.11876 2.07134,-1.11876 l 0,0 c -0.5749,0.83302 -1.1498,1.66604 -1.7247,2.49905 -0.97157,-4.65758 -1.76189,-9.36431 -3.07538,-13.94214 0,0 2.09519,-1.15391 2.09519,-1.15391 z"
         id="path3409"
         style="opacity:1;fill:#ccf0fc;fill-rule:evenodd;stroke:#dcf4fc;stroke-width:2.70000005;stroke-linecap:round;stroke-linejoin:round;stroke-miterlimit:4;stroke-dasharray:none;stroke-opacity:1" />
      <path
         inkscape:connector-curvature="0"
         d="m 194.09325,192.3838 c 2.28627,0.71039 4.64893,1.13017 6.9422,1.81448 0.27648,0.11552 1.01138,0.36742 1.2703,0.64129 0.66667,0.70515 -1.67848,1.17945 -2.64845,1.20864 -0.51803,0.0156 -0.89016,-0.5312 -1.32975,-0.80575 -0.52545,-0.32818 -1.04342,-0.6682 -1.56513,-1.00229 1.20746,-1.90971 -2.81807,-0.2006 -2.51592,-1.05885 0.16407,-0.46603 0.88265,-0.74246 1.35557,-0.59946 0.31205,0.0944 -0.32584,0.57028 -0.42495,0.88085 -0.25725,0.80613 -0.20111,1.28255 -0.20761,2.10551 0.0414,0.21761 0.007,0.98373 0.48988,1.00853 0.10703,0.005 1.8875,-1.00204 0.98974,-0.55914 -0.27273,0.13455 -5.78953,3.21052 1.2369,-0.69879 0.97087,-0.13386 0.48486,-0.0999 1.45793,-0.10335 0,0 -1.9259,1.40633 -1.9259,1.40633 l 0,0 c -0.94064,0.0424 -0.47555,-0.0193 -1.39524,0.18532 0.46605,-0.28718 1.87191,-1.13578 1.39814,-0.86154 -0.88365,0.51148 -1.7453,1.06029 -2.62799,1.57341 -1.07955,0.62757 -1.58896,0.42162 -1.73564,-0.87471 -0.004,-0.65269 -0.0203,-2.73157 0.53321,-3.18984 2.65334,-2.19678 2.97693,-1.94797 5.3361,-0.4782 0.52393,0.32942 1.04122,0.66964 1.5718,0.98825 0.44139,0.26506 1.35413,0.24756 1.34336,0.76231 -0.0143,0.68341 -0.91778,1.01351 -1.39082,1.50696 -0.0253,0.0263 0.0693,-0.0757 0.0428,-0.1008 -0.12766,-0.12127 -0.28828,-0.20493 -0.44633,-0.28256 -0.24875,-0.12217 -0.51306,-0.20974 -0.76959,-0.31462 -2.30202,-0.68352 -4.66704,-1.12462 -6.97042,-1.80461 0,0 1.98582,-1.34737 1.98582,-1.34737 z"
         id="path3411"
         style="opacity:1;fill:#ccf0fc;fill-rule:evenodd;stroke:#dcf4fc;stroke-width:2.70000005;stroke-linecap:round;stroke-linejoin:round;stroke-miterlimit:4;stroke-dasharray:none;stroke-opacity:1" />
      <path
         inkscape:connector-curvature="0"
         d="m 203.04964,201.84314 c 0.44738,1.93725 0.80717,3.89245 1.29345,5.82065 0.60538,2.31279 1.53062,4.51333 2.61124,6.63916 1.14575,1.89914 1.75149,4.01561 2.50284,6.0781 1.17402,-0.20215 -0.78865,0.68532 -1.27742,0.73551 -0.26366,0.0271 0.31568,-0.42584 0.47352,-0.63875 0,0 2.18177,-0.95257 2.18177,-0.95257 l 0,0 c -0.68205,1.09911 -2.09513,2.84225 -3.46108,2.00938 -0.72986,-2.06169 -1.32694,-4.16976 -2.47411,-6.06014 -1.08709,-2.14122 -2.02031,-4.35761 -2.63879,-6.68383 -0.49204,-1.92794 -0.83404,-3.88745 -1.33039,-5.81461 0,0 2.11897,-1.1329 2.11897,-1.1329 z"
         id="path3413"
         style="opacity:1;fill:#ccf0fc;fill-rule:evenodd;stroke:#dcf4fc;stroke-width:2.70000005;stroke-linecap:round;stroke-linejoin:round;stroke-miterlimit:4;stroke-dasharray:none;stroke-opacity:1" />
      <path
         inkscape:connector-curvature="0"
         d="m 207.50003,199.58609 c 1.00634,3.1662 1.66434,6.42743 2.18364,9.70463 0.34659,2.40339 0.44199,4.83122 0.82728,7.22926 0.34423,1.6899 0.70557,3.37533 1.06017,5.06288 0,0 -2.0914,1.12067 -2.0914,1.12067 l 0,0 c -0.35406,-1.69126 -0.70877,-3.38164 -1.0656,-5.07244 -0.39123,-2.40216 -0.4688,-4.83473 -0.80081,-7.24475 -0.50156,-3.25904 -1.13889,-6.51088 -2.20623,-9.63745 0,0 2.09295,-1.1628 2.09295,-1.1628 z"
         id="path3415"
         style="opacity:1;fill:#ccf0fc;fill-rule:evenodd;stroke:#dcf4fc;stroke-width:2.70000005;stroke-linecap:round;stroke-linejoin:round;stroke-miterlimit:4;stroke-dasharray:none;stroke-opacity:1" />
      <path
         inkscape:connector-curvature="0"
         d="m 208.41573,199.65899 c 0.36776,1.9177 0.85611,3.81934 0.82896,5.78763 -0.0156,1.13131 -0.18341,2.05349 -0.34385,3.1628 -0.18165,0.98308 -0.33318,1.97901 -0.62444,2.93819 -0.0372,0.12255 -0.0881,0.24052 -0.13286,0.36053 -0.0131,0.0352 -0.006,0.0897 -0.0407,0.10511 -0.71234,0.32053 -1.44551,0.59259 -2.16827,0.88888 0.108,-1.30434 0.16374,-2.61209 0.20556,-3.91997 0.0944,-1.20355 -0.0224,-2.37368 -0.42397,-3.51125 -0.073,-0.20803 -0.14602,-0.41606 -0.21903,-0.62409 0,0 2.089,-1.15513 2.089,-1.15513 l 0,0 c 0.0733,0.20742 0.14671,0.41485 0.22006,0.62228 0.42022,1.16192 0.56735,2.35723 0.4639,3.59161 -0.0429,1.30379 -0.10073,2.60715 -0.18613,3.90891 -0.72558,0.398 -1.44204,0.8131 -2.17675,1.194 -0.14387,0.0746 0.15988,-0.2838 0.21388,-0.43659 0.33399,-0.94506 0.47056,-1.94959 0.6698,-2.9265 0.16466,-1.06814 0.34801,-2.0375 0.37083,-3.1255 0.0409,-1.95134 -0.44386,-3.83757 -0.85351,-5.72834 0,0 2.10756,-1.13257 2.10756,-1.13257 z"
         id="path3417"
         style="opacity:1;fill:#ccf0fc;fill-rule:evenodd;stroke:#dcf4fc;stroke-width:2.70000005;stroke-linecap:round;stroke-linejoin:round;stroke-miterlimit:4;stroke-dasharray:none;stroke-opacity:1" />
      <path
         inkscape:connector-curvature="0"
         d="m 213.14345,197.26658 c 0.0881,2.35015 -0.20456,4.73415 0.0369,7.07898 0.0501,0.48677 0.16419,0.96482 0.24628,1.44723 0.67613,2.52498 1.80302,4.89337 2.5252,7.40701 0.15401,1.16557 0.62326,2.83944 -0.32395,3.80228 -0.7966,0.37339 -1.5932,0.74678 -2.3898,1.12017 0,0 1.95263,-1.40021 1.95263,-1.40021 l 0,0 c -0.60008,0.38563 -1.20016,0.77125 -1.80024,1.15688 1.09443,-0.43767 0.58875,-2.68906 0.47984,-3.54503 -0.70752,-2.52865 -1.83141,-4.90658 -2.52053,-7.43762 -0.0867,-0.4918 -0.20696,-0.97884 -0.25997,-1.47539 -0.24984,-2.34027 0.0658,-4.72194 -0.0787,-7.06783 0,0 2.13231,-1.08647 2.13231,-1.08647 z"
         id="path3419"
         style="opacity:1;fill:#ccf0fc;fill-rule:evenodd;stroke:#dcf4fc;stroke-width:2.70000005;stroke-linecap:round;stroke-linejoin:round;stroke-miterlimit:4;stroke-dasharray:none;stroke-opacity:1" />
      <path
         inkscape:connector-curvature="0"
         d="m 217.97878,197.03319 c -0.007,1.1488 -0.007,2.29766 -0.007,3.44649 -0.0964,1.49018 0.0682,2.93538 0.34175,4.39565 0.50962,1.77158 1.02482,3.53929 1.35677,5.3541 0.1306,1.19418 0.36559,2.37193 0.52916,3.56164 0,0 -2.11518,1.11382 -2.11518,1.11382 l 0,0 c -0.15818,-1.18841 -0.40423,-2.36174 -0.51858,-3.55586 -0.31632,-1.8176 -0.81873,-3.58924 -1.3507,-5.35443 -0.28238,-1.4722 -0.47481,-2.92571 -0.37089,-4.43082 -2.1e-4,-1.14654 6.7e-4,-2.29311 -0.007,-3.43963 0,0 2.14114,-1.09096 2.14114,-1.09096 z"
         id="path3421"
         style="opacity:1;fill:#ccf0fc;fill-rule:evenodd;stroke:#dcf4fc;stroke-width:2.70000005;stroke-linecap:round;stroke-linejoin:round;stroke-miterlimit:4;stroke-dasharray:none;stroke-opacity:1" />
      <path
         inkscape:connector-curvature="0"
         d="m 219.91115,197.03319 c -0.008,1.10269 -0.006,2.20544 -0.005,3.30816 -0.002,1.15827 -3.2e-4,2.31654 4.8e-4,3.47482 6.8e-4,0.99756 8.7e-4,1.99513 9.8e-4,2.9927 7e-5,0.96516 6e-5,1.93033 5e-5,2.8955 -1e-5,0.96563 -1e-5,1.93126 -1e-5,2.89689 0.0386,0.6578 -0.026,1.30174 -0.12893,1.94989 0,0 -2.15097,1.05199 -2.15097,1.05199 l 0,0 c 0.1093,-0.63699 0.19399,-1.26565 0.14618,-1.9147 0,-0.96563 -1e-5,-1.93125 -1e-5,-2.89688 -1e-5,-0.96518 -2e-5,-1.93037 5e-5,-2.89555 1.1e-4,-0.9979 3e-4,-1.9958 9.8e-4,-2.9937 7.9e-4,-1.15844 0.002,-2.31687 4.8e-4,-3.47531 5.9e-4,-1.10095 0.003,-2.20192 -0.005,-3.30285 0,0 2.14114,-1.09096 2.14114,-1.09096 z"
         id="path3423"
         style="opacity:1;fill:#ccf0fc;fill-rule:evenodd;stroke:#dcf4fc;stroke-width:2.70000005;stroke-linecap:round;stroke-linejoin:round;stroke-miterlimit:4;stroke-dasharray:none;stroke-opacity:1" />
      <path
         inkscape:connector-curvature="0"
         d="m 212.27771,205.27017 c 0.66052,2.56996 0.91959,5.22386 1.13109,7.86254 0.14594,1.50754 0.32818,3.01115 0.48752,4.51727 0,0 -2.10615,1.1003 -2.10615,1.1003 l 0,0 c -0.14899,-1.51159 -0.32146,-3.02063 -0.4707,-4.5322 -0.20308,-2.61522 -0.44017,-5.25439 -1.14382,-7.79021 0,0 2.10206,-1.1577 2.10206,-1.1577 z"
         id="path3427"
         style="opacity:1;fill:#ccf0fc;fill-rule:evenodd;stroke:#dcf4fc;stroke-width:2.70000005;stroke-linecap:round;stroke-linejoin:round;stroke-miterlimit:4;stroke-dasharray:none;stroke-opacity:1" />
      <path
         inkscape:connector-curvature="0"
         d="m 203.62209,201.25551 c 0.91438,1.33491 1.62309,2.81793 2.26328,4.30199 0.55067,1.31122 0.82433,2.69771 0.93823,4.10802 0.11734,1.24263 -0.0411,2.48308 -0.2874,3.7003 -0.24181,0.98408 -0.4126,1.9811 -0.52813,2.98713 0,0 -2.14282,1.06192 -2.14282,1.06192 l 0,0 c 0.11044,-1.01371 0.27445,-2.01935 0.52058,-3.0099 0.26913,-1.1906 0.41487,-2.41799 0.31764,-3.63844 -0.10308,-1.3868 -0.35219,-2.75338 -0.89067,-4.0445 -0.63067,-1.46589 -1.3249,-2.94178 -2.25726,-4.24012 0,0 2.06655,-1.2264 2.06655,-1.2264 z"
         id="path3429"
         style="opacity:1;fill:#ccf0fc;fill-rule:evenodd;stroke:#dcf4fc;stroke-width:2.70000005;stroke-linecap:round;stroke-linejoin:round;stroke-miterlimit:4;stroke-dasharray:none;stroke-opacity:1" />
      <path
         inkscape:connector-curvature="0"
         d="m 202.66129,204.70614 c 0.65524,1.28946 1.1247,2.65623 1.6053,4.0172 0.33745,1.10587 0.59149,2.23727 0.84835,3.36485 0.10969,0.48729 0.16421,0.9833 0.21686,1.47904 0,0 -2.12236,1.10883 -2.12236,1.10883 l 0,0 c -0.0481,-0.48732 -0.0977,-0.97499 -0.20235,-1.45434 -0.24974,-1.12086 -0.50667,-2.24268 -0.82741,-3.34471 -0.47011,-1.34698 -0.92867,-2.70132 -1.5957,-3.96687 0,0 2.07731,-1.204 2.07731,-1.204 z"
         id="path3431"
         style="opacity:1;fill:#ccf0fc;fill-rule:evenodd;stroke:#dcf4fc;stroke-width:2.70000005;stroke-linecap:round;stroke-linejoin:round;stroke-miterlimit:4;stroke-dasharray:none;stroke-opacity:1" />
      <path
         style="opacity:1;fill:#000004;fill-rule:evenodd;stroke:#000004;stroke-width:1.01886797;stroke-linecap:round;stroke-linejoin:round;stroke-miterlimit:4;stroke-dasharray:none;stroke-opacity:1"
         d="m 131.14038,666.73015 c -3.89251,-1.39396 -6.54671,-4.02377 -7.80315,-7.73142 -0.54291,-1.6021 -0.61189,-5.0142 -0.61189,-30.26886 0,-27.78759 0.0184,-28.5124 0.775,-30.5346 1.08914,-2.91098 3.55579,-5.52042 6.44327,-6.81624 2.0228,-0.90778 2.83413,-1.05494 5.81614,-1.05494 2.89071,0 3.80544,0.15567 5.51574,0.93867 2.56526,1.17442 4.59007,2.93264 5.8467,5.07691 0.67722,1.15559 1.15896,1.60064 1.58935,1.46829 4.76378,-1.46493 5.61277,-1.52407 21.93833,-1.52802 14.29881,-0.003 16.36132,0.072 19.02207,0.69555 5.13033,1.20237 8.43333,3.02028 9.21129,5.06972 0.77898,2.05213 0.97608,8.2797 0.99383,31.40067 l 0.0181,23.5849 -0.99071,2.07547 c -1.46936,3.0782 -3.40191,5.07605 -6.28135,6.49359 -7.63482,3.75861 -16.26031,-0.90475 -18.15233,-9.81405 -0.27568,-1.29803 -0.42468,-7.48818 -0.42468,-17.64151 l 0,-15.6418 -8.96227,-0.0132 c -8.31058,-0.0122 -12.13278,-0.3408 -15.4581,-1.32893 l -0.83547,-0.24826 -0.10793,18.62537 -0.10793,18.62536 -0.88964,1.96745 c -1.06314,2.35115 -3.91597,5.13883 -6.36966,6.22422 -2.54403,1.12534 -7.56374,1.31066 -10.17472,0.37562 z m 9.99032,-2.94101 c 1.26181,-0.61734 2.44533,-1.56924 3.13527,-2.52169 2.17605,-3.00394 2.23296,-3.59774 2.23296,-23.29854 l 0,-17.98149 -1.38551,-0.91228 c -2.63462,-1.73474 -2.90924,-2.43891 -3.07926,-7.89558 -0.0838,-2.68889 -0.0326,-5.84687 0.11366,-7.01773 0.23362,-1.86982 0.4725,-2.32955 1.96341,-3.77854 l 1.69743,-1.64971 -0.80141,-1.29671 c -2.12548,-3.43909 -5.20798,-4.89714 -9.89376,-4.67984 -4.54455,0.21075 -7.17929,1.7673 -9.11653,5.38586 -0.81574,1.52371 -0.81923,1.63329 -0.93698,29.45393 -0.0829,19.58742 0.008,28.50769 0.30384,29.87779 0.75809,3.50857 3.89354,6.57243 7.51146,7.33995 2.38382,0.50572 6.05892,0.0492 8.25542,-1.02542 z m 50.38245,-0.24112 c 2.26799,-0.97083 4.53255,-3.50226 5.5387,-6.19144 0.73555,-1.96594 0.76735,-2.88497 0.78121,-22.57548 0.008,-11.28935 -0.098,-23.04306 -0.23546,-26.11934 -0.23535,-5.26764 -0.30464,-5.65206 -1.19035,-6.60359 -1.1901,-1.27856 -3.82191,-2.41594 -7.26737,-3.14071 -3.81075,-0.80162 -32.92066,-0.81342 -36.68876,-0.0149 -3.1627,0.67024 -5.82623,1.82962 -7.17861,3.1247 l -1.03773,0.99376 0,6.18062 c 0,3.47319 0.16834,6.49518 0.3843,6.89869 0.59998,1.12109 3.36012,2.55132 6.62935,3.43517 2.62695,0.7102 4.28694,0.82874 13.79361,0.98498 l 10.80726,0.17762 0.41916,0.91994 c 0.2869,0.62968 0.41915,6.13189 0.41915,17.43873 0,18.55898 0.0141,18.67312 2.68077,21.70262 3.4343,3.90158 7.41138,4.81477 12.14477,2.78861 z"
         id="path3728"
         inkscape:connector-curvature="0"
         transform="translate(23.655087,-413.53684)" />
      <rect
         style="opacity:1;fill:#dcf4fc;fill-rule:evenodd;stroke:#dcf4fc;stroke-width:2.57309914;stroke-linecap:round;stroke-linejoin:round;stroke-miterlimit:4;stroke-dasharray:none;stroke-opacity:1"
         id="rect3730"
         width="15.22124"
         height="19.372183"
         x="157.55391"
         y="186.68645"
         rx="16.79714"
         ry="6.0669403" />
    </g>
  </g>
</svg>
